<?xml version="1.0" encoding="utf-8"?>
<!-- Generator: Adobe Illustrator 16.0.0, SVG Export Plug-In . SVG Version: 6.00 Build 0)  -->
<!DOCTYPE svg PUBLIC "-//W3C//DTD SVG 1.1//EN" "http://www.w3.org/Graphics/SVG/1.1/DTD/svg11.dtd">
<svg version="1.1" id="Layer_1" xmlns="http://www.w3.org/2000/svg" xmlns:xlink="http://www.w3.org/1999/xlink" x="0px" y="0px"
	 width="180px" height="180px" viewBox="0 0 180 180" enable-background="new 0 0 180 180" xml:space="preserve">
<path fill="#91D5ED" d="M153,87.227V80.83L81.117,98.637c-1.479,0.366-2.807,0.124-3.661-0.632L23.673,51.043
	c-6.458,4.408-4.349,21.609-1.698,23.791l55.561,48.464c0.854,0.758,2.096,0.998,3.575,0.632L153,106.123v-6.407l-68.768,17.038
	c-2.273-3.86-2.627-7.989-0.092-12.489L153,87.227z"/>
<path fill="#B59F8D" d="M77.548,93.49c0.854,0.758,2.09,0.997,3.569,0.632L153,76.315v-6.407L84.232,86.946
	c-2.273-3.86-2.627-7.99-0.092-12.49L153,57.419v-6.406L97.634,2.548L25.661,20.355c-8.878,1.95-6.606,22.286-3.708,24.67
	L77.548,93.49z"/>
<polygon fill="#7C6D61" points="0,115.49 0,125.347 88.344,177.599 139,158.665 139,148.374 88.344,167.743 "/>
<path fill="#7C6D61" d="M177.004,109.068L157,97.418v11.498l-74.051,18.941c-3.385,0.865-7,0.247-9.535-2.037L22.229,79.687
	L0,88.022v10.644l88.3,52.253l81.7-31.081v16.619l-6,2.155v-4.71l-21,7.979v30.831l10.584-12.616L164,164.733v-15.608l9.883-3.599
	c4.1-1.649,6.117-3.42,6.117-7.414v-24.556C180,111.593,178.565,109.992,177.004,109.068z"/>
</svg>
