<?xml version="1.0" encoding="utf-8"?>
<!-- Generator: Adobe Illustrator 16.0.0, SVG Export Plug-In . SVG Version: 6.00 Build 0)  -->
<!DOCTYPE svg PUBLIC "-//W3C//DTD SVG 1.1//EN" "http://www.w3.org/Graphics/SVG/1.1/DTD/svg11.dtd">
<svg version="1.1" id="Layer_1" xmlns="http://www.w3.org/2000/svg" xmlns:xlink="http://www.w3.org/1999/xlink" x="0px" y="0px"
	 width="240px" height="240px" viewBox="0 0 240 240" enable-background="new 0 0 240 240" xml:space="preserve">
<path fill-rule="evenodd" clip-rule="evenodd" fill="#7C6D61" d="M124.279,195.612l-0.237-2.294
	c-2.229-21.403-55.722-21.426-56.927,0l-0.74,13.128c18.554,6.351,39.314,6.443,57.907,0.168c18.426,6.183,38.979,6.218,57.401,0
	c18.592,6.238,39.352,6.22,57.904-0.168l-0.738-13.128c-1.209-21.486-54.706-21.343-56.926,0l-0.24,2.294l-0.24-2.294
	c-2.229-21.403-54.701-21.346-56.926,0L124.279,195.612L124.279,195.612z"/>
<path fill-rule="evenodd" clip-rule="evenodd" fill="#91D5ED" d="M86.077,37.796c44.603,0,89.207,0,133.809,0V27.648H86.077V37.796
	L86.077,37.796z"/>
<path fill-rule="evenodd" clip-rule="evenodd" fill="#91D5ED" d="M91.137,41.288v63.349l40-27.835l0.845,1.214l-40.844,32.426
	v16.087c41.229,0,82.459,0,123.688,0v-85.24C173.412,41.288,140.05,41.288,91.137,41.288L91.137,41.288z"/>
<path fill-rule="evenodd" clip-rule="evenodd" fill="#7C6D61" d="M195.157,148.989c0.715-7.66,7.576-11.494,15.229-11.494
	c7.65,0,14.51,3.834,15.229,11.494c0.374,4.001-0.521,13.464-2.511,17.046c-1.74,3.134-5.788,6.144-10.274,7.173
	c-2.175,0.318-2.717,0.318-4.889,0c-4.486-1.029-8.536-4.039-10.274-7.173C195.679,162.453,194.781,152.99,195.157,148.989
	L195.157,148.989z"/>
<path fill-rule="evenodd" clip-rule="evenodd" fill="#7C6D61" d="M137.751,148.989c0.72-7.66,7.579-11.494,15.231-11.494
	c7.653,0,14.51,3.834,15.23,11.494c0.376,4.001-0.524,13.464-2.514,17.046c-1.735,3.134-5.786,6.144-10.274,7.173
	c-2.17,0.318-2.715,0.318-4.886,0c-4.489-1.029-8.537-4.039-10.275-7.173C138.277,162.453,137.377,152.99,137.751,148.989
	L137.751,148.989z"/>
<path fill-rule="evenodd" clip-rule="evenodd" fill="#7C6D61" d="M80.347,148.989c0.719-7.66,7.579-11.494,15.232-11.494
	c7.652,0,14.51,3.834,15.23,11.494c0.374,4.001-0.523,13.464-2.512,17.046c-1.738,3.134-5.787,6.144-10.276,7.173
	c-2.17,0.318-2.714,0.318-4.886,0c-4.489-1.029-8.537-4.039-10.276-7.173C80.871,162.453,79.973,152.99,80.347,148.989z"/>
<path fill-rule="evenodd" clip-rule="evenodd" fill="#B59F8D" d="M43.833,46.189c-1.148-7.662-8.042-11.495-15.479-11.495
	c-7.437,0-13.878,3.833-14.129,11.495c-0.13,4,1.297,13.462,3.441,17.045c1.874,3.133,5.985,6.144,10.408,7.171
	c2.128,0.32,2.655,0.32,4.749,0c4.302-1.028,8.062-4.039,9.567-7.171C44.112,59.651,44.43,50.188,43.833,46.189L43.833,46.189z
	 M81.135,104.583l48.511-30.022l1.491,2.241l-46.934,32.842c0.562,4.093-2.019,8.625-7.898,8.155l-24.214-0.994l-1.5-13.097
	c-0.052,12.833-0.168,27.598-0.221,40.43h-1.708l-0.968,24.685l-1.253,32.353c-0.138,2.465-0.805,4.08-1.768,4.08H31.57
	c-0.964,0-1.59-1.615-1.669-4.08l-0.54-45.124l-3.048,45.124c-0.241,2.465-0.973,4.08-1.936,4.08H11.274
	c-0.962,0-1.524-1.615-1.501-4.08l0.368-55.188H7.868c-3.293,0.037-5.058-1.107-5.231-3.914l-2.18-44.468
	C0.084,86.72,6.147,73.469,18.044,72.771c1.111-0.063,2.251-0.03,3.359-0.03c5.123,5.573,9.67,13.029,13.337,19.669
	c-0.291-4.196-0.898-8.279-1.942-12.326c-0.013-0.045-2.099-3.808-2.587-4.719c-0.195-0.357-0.105-0.755,0.186-0.797
	c1.642-0.232,3.454-0.073,4.937-0.592c0.261-0.092,0.728,0.172,0.915,0.532c0.461,0.93,1.486,4.379,1.508,4.422
	c0.866,1.933,1.698,3.88,2.394,5.885c0.689,1.981,1.25,4,1.792,6.021c0.648-4.529,1.25-9.225,0.554-13.783
	c6.231,5.548,11.217,18.168,15.228,25.713l19.789,0.69C78.947,103.527,80.154,103.94,81.135,104.583z"/>
</svg>
